<svg xmlns="http://www.w3.org/2000/svg" viewBox="0 0 1600 440" role="img" aria-labelledby="title desc">
  <title id="title">NumberInbox logo with tagline</title>
  <desc id="desc">The NumberInbox symbol, wordmark, and Email, reimagined with your number tagline.</desc>
  <defs>
    <linearGradient id="left" x1="0" y1="0" x2="1" y2="1"><stop stop-color="#22E6A7"/><stop offset="1" stop-color="#10B981"/></linearGradient>
    <linearGradient id="right" x1="0" y1="0" x2=".8" y2="1"><stop stop-color="#16D4E8"/><stop offset="1" stop-color="#0787F5"/></linearGradient>
    <linearGradient id="diagonal" x1="0" y1="0" x2="1" y2="1"><stop stop-color="#15D99D"/><stop offset=".52" stop-color="#08BFD2"/><stop offset="1" stop-color="#087BF1"/></linearGradient>
    <linearGradient id="inbox" gradientUnits="userSpaceOnUse" x1="1073" y1="245" x2="1558" y2="32"><stop stop-color="#0787F5"/><stop offset=".22" stop-color="#0EA5FF"/><stop offset=".42" stop-color="#08B8E4"/><stop offset=".6" stop-color="#06B6D4"/><stop offset=".8" stop-color="#0BBFAF"/><stop offset="1" stop-color="#10B981"/></linearGradient>
    <linearGradient id="inboxDepth" gradientUnits="userSpaceOnUse" x1="0" y1="32" x2="0" y2="245"><stop stop-color="#36E3E7" stop-opacity=".32"/><stop offset=".5" stop-color="#06B6D4" stop-opacity=".04"/><stop offset="1" stop-color="#0753F0" stop-opacity=".38"/></linearGradient>
    <radialGradient id="inboxGlow" gradientUnits="userSpaceOnUse" cx="1315.5" cy="45" r="390"><stop stop-color="#B8FFFF" stop-opacity=".22"/><stop offset=".48" stop-color="#52DFE9" stop-opacity=".08"/><stop offset="1" stop-color="#06B6D4" stop-opacity="0"/></radialGradient>
    <path id="wordmarkNumberOutline" d="M486.985 230.0H454.645L411.58 164.99V230.0H379.24V113.675H411.58L454.645 179.51V113.675H486.985ZM599.95 137.435V230.0H567.445V216.8Q563.32 223.07 556.06 226.9475Q548.8 230.825 539.395 230.825Q523.225 230.825 513.9025 220.1825Q504.58 209.54 504.58 191.225V137.435H536.755V187.1Q536.755 195.01999999999998 540.9625 199.5575Q545.17 204.095 552.1 204.095Q559.195 204.095 563.32 199.5575Q567.445 195.01999999999998 567.445 187.1V137.435ZM777.64 176.045V230.0H745.3V180.335Q745.3 172.91 741.175 168.785Q737.05 164.66 729.955 164.66Q722.86 164.66 718.735 168.785Q714.61 172.91 714.61 180.335V230.0H682.27V180.335Q682.27 172.91 678.2275 168.785Q674.185 164.66 667.09 164.66Q659.83 164.66 655.705 168.785Q651.58 172.91 651.58 180.335V230.0H619.24V137.435H651.58V149.64499999999998Q655.87 143.70499999999998 662.7175 140.1575Q669.565 136.61 678.475 136.61Q688.705 136.61 696.7075 141.065Q704.71 145.51999999999998 709.33 153.605Q714.28 146.015 722.365 141.3125Q730.45 136.61 740.185 136.61Q757.675 136.61 767.6575 147.17000000000002Q777.64 157.73 777.64 176.045ZM854.64 136.28Q865.695 136.28 874.6875 142.055Q883.6800000000001 147.82999999999998 888.8775 158.555Q894.075 169.28 894.075 183.635Q894.075 197.99 888.8775 208.7975Q883.6800000000001 219.605 874.6875 225.38Q865.695 231.155 854.64 231.155Q845.235 231.155 838.3050000000001 227.4425Q831.375 223.73 827.58 217.13V230.0H795.24V107.89999999999999H827.58V150.305Q831.375 143.70499999999998 838.3050000000001 139.9925Q845.235 136.28 854.64 136.28ZM844.41 164.495Q837.315 164.495 832.4475 169.61Q827.58 174.725 827.58 183.635Q827.58 192.71 832.4475 197.825Q837.315 202.94 844.41 202.94Q851.505 202.94 856.3725 197.7425Q861.24 192.54500000000002 861.24 183.635Q861.24 174.56 856.3725 169.5275Q851.505 164.495 844.41 164.495ZM995.185 190.235H933.97Q934.465 197.825 938.1775 201.5375Q941.89 205.25 947.665 205.25Q955.75 205.25 959.215 197.99H993.7Q991.5550000000001 207.56 985.3675000000001 215.0675Q979.1800000000001 222.575 969.7750000000001 226.865Q960.37 231.155 948.985 231.155Q935.29 231.155 924.6475 225.38Q914.005 219.605 907.9825000000001 208.88Q901.96 198.155 901.96 183.635Q901.96 169.115 907.9000000000001 158.4725Q913.84 147.82999999999998 924.4825000000001 142.055Q935.125 136.28 948.985 136.28Q962.6800000000001 136.28 973.24 141.89Q983.8 147.5 989.74 157.9775Q995.6800000000001 168.45499999999998 995.6800000000001 182.64499999999998Q995.6800000000001 186.44 995.185 190.235ZM962.6800000000001 174.56Q962.6800000000001 168.62 958.72 165.2375Q954.76 161.855 948.82 161.855Q942.88 161.855 939.085 165.0725Q935.29 168.29 934.135 174.56ZM1071.445 136.61V171.095H1062.37Q1051.81 171.095 1046.695 175.22Q1041.58 179.345 1041.58 189.575V230.0H1009.24V137.435H1041.58V153.76999999999998Q1047.025 145.85 1054.7800000000002 141.23000000000002Q1062.535 136.61 1071.445 136.61Z"/>
    <path id="wordmarkInboxOutline" d="M1114.58 113.675V230.0H1082.24V113.675ZM1228.61 176.045V230.0H1196.27V180.335Q1196.27 172.415 1192.145 167.8775Q1188.02 163.34 1181.09 163.34Q1173.83 163.34 1169.705 167.8775Q1165.58 172.415 1165.58 180.335V230.0H1133.24V137.435H1165.58V150.635Q1169.87 144.365 1177.13 140.4875Q1184.39 136.61 1193.795 136.61Q1209.8 136.61 1219.205 147.2525Q1228.61 157.89499999999998 1228.61 176.045ZM1305.64 136.28Q1316.695 136.28 1325.6875 142.055Q1334.68 147.82999999999998 1339.8775 158.555Q1345.075 169.28 1345.075 183.635Q1345.075 197.99 1339.8775 208.7975Q1334.68 219.605 1325.6875 225.38Q1316.695 231.155 1305.64 231.155Q1296.235 231.155 1289.3049999999998 227.4425Q1282.375 223.73 1278.58 217.13V230.0H1246.24V107.89999999999999H1278.58V150.305Q1282.375 143.70499999999998 1289.3049999999998 139.9925Q1296.235 136.28 1305.64 136.28ZM1295.41 164.495Q1288.315 164.495 1283.4475 169.61Q1278.58 174.725 1278.58 183.635Q1278.58 192.71 1283.4475 197.825Q1288.315 202.94 1295.41 202.94Q1302.505 202.94 1307.3725 197.7425Q1312.24 192.54500000000002 1312.24 183.635Q1312.24 174.56 1307.3725 169.5275Q1302.505 164.495 1295.41 164.495ZM1352.96 183.635Q1352.96 169.28 1359.3125 158.555Q1365.665 147.82999999999998 1376.6374999999998 142.055Q1387.61 136.28 1401.47 136.28Q1415.33 136.28 1426.3025 142.055Q1437.275 147.82999999999998 1443.6275 158.555Q1449.98 169.28 1449.98 183.635Q1449.98 197.99 1443.6275 208.7975Q1437.275 219.605 1426.22 225.38Q1415.165 231.155 1401.305 231.155Q1387.445 231.155 1376.4724999999999 225.38Q1365.5 219.605 1359.23 208.88Q1352.96 198.155 1352.96 183.635ZM1417.145 183.635Q1417.145 174.23 1412.6075 169.27999999999997Q1408.07 164.32999999999998 1401.47 164.32999999999998Q1394.87 164.32999999999998 1390.415 169.27999999999997Q1385.96 174.23 1385.96 183.635Q1385.96 193.20499999999998 1390.25 198.15499999999997Q1394.54 203.105 1401.305 203.105Q1408.07 203.105 1412.6075 198.0725Q1417.145 193.04 1417.145 183.635ZM1520.99 230.0 1504.325 206.735 1491.125 230.0H1455.65L1486.505 181.985L1454.33 137.435H1490.63L1507.295 160.7L1520.66 137.435H1556.135L1524.62 184.625L1557.29 230.0Z"/>
    <path id="primaryTaglineOutline" d="M388.718 296.614V309.262H403.598V315.028H388.718V328.234H405.45799999999997V334.0H381.65V290.848H405.45799999999997V296.614ZM470.078 313.85V334.0H463.072V314.904Q463.072 310.316 460.778 307.86699999999996Q458.484 305.418 454.516 305.418Q450.548 305.418 448.223 307.86699999999996Q445.898 310.316 445.898 314.904V334.0H438.892V314.904Q438.892 310.316 436.59799999999996 307.86699999999996Q434.304 305.418 430.336 305.418Q426.368 305.418 424.043 307.86699999999996Q421.718 310.316 421.718 314.904V334.0H414.65V299.838H421.718V303.744Q423.454 301.636 426.12 300.45799999999997Q428.786 299.28 431.824 299.28Q435.916 299.28 439.14 301.01599999999996Q442.364 302.752 444.1 306.038Q445.65 302.938 448.936 301.109Q452.222 299.28 456.004 299.28Q460.034 299.28 463.227 300.95399999999995Q466.42 302.628 468.249 305.914Q470.078 309.2 470.078 313.85ZM493.414 299.28Q497.444 299.28 500.451 300.861Q503.45799999999997 302.442 505.256 304.798V299.838H512.386V334.0H505.256V328.916Q503.45799999999997 331.334 500.35799999999995 332.946Q497.258 334.558 493.29 334.558Q488.888 334.558 485.23 332.29499999999996Q481.572 330.032 479.433 325.971Q477.294 321.91 477.294 316.764Q477.294 311.618 479.433 307.65Q481.572 303.682 485.26099999999997 301.481Q488.95 299.28 493.414 299.28ZM494.902 305.418Q492.174 305.418 489.818 306.751Q487.462 308.084 486.005 310.65700000000004Q484.548 313.23 484.548 316.764Q484.548 320.298 486.005 322.964Q487.462 325.63 489.849 327.025Q492.236 328.42 494.902 328.42Q497.63 328.42 499.986 327.05600000000004Q502.342 325.692 503.799 323.057Q505.256 320.422 505.256 316.888Q505.256 313.354 503.799 310.75Q502.342 308.146 499.986 306.78200000000004Q497.63 305.418 494.902 305.418ZM520.72 290.786Q520.72 288.864 522.0219999999999 287.562Q523.324 286.26 525.246 286.26Q527.106 286.26 528.408 287.562Q529.71 288.864 529.71 290.786Q529.71 292.70799999999997 528.408 294.01Q527.106 295.312 525.246 295.312Q523.324 295.312 522.0219999999999 294.01Q520.72 292.70799999999997 520.72 290.786ZM528.718 299.838V334.0H521.65V299.838ZM545.718 288.12V334.0H538.65V288.12ZM563.4 325.506 555.898 342.618H551.31L555.712 325.506ZM602.948 299.28V306.596H601.15Q596.996 306.596 594.857 308.704Q592.718 310.812 592.718 316.02V334.0H585.65V299.838H592.718V304.798Q594.268 302.194 596.841 300.73699999999997Q599.414 299.28 602.948 299.28ZM640.712 319.554H614.61Q614.92 323.646 617.6479999999999 326.126Q620.376 328.606 624.344 328.606Q630.048 328.606 632.404 323.832H640.03Q638.48 328.544 634.419 331.551Q630.358 334.558 624.344 334.558Q619.446 334.558 615.571 332.35699999999997Q611.696 330.156 609.495 326.15700000000004Q607.294 322.158 607.294 316.888Q607.294 311.618 609.433 307.619Q611.572 303.62 615.447 301.45Q619.322 299.28 624.344 299.28Q629.18 299.28 632.962 301.388Q636.744 303.496 638.8520000000001 307.30899999999997Q640.96 311.122 640.96 316.082Q640.96 318.004 640.712 319.554ZM633.582 313.85Q633.52 309.944 630.7919999999999 307.58799999999997Q628.064 305.23199999999997 624.034 305.23199999999997Q620.376 305.23199999999997 617.7719999999999 307.557Q615.168 309.882 614.672 313.85ZM645.72 290.786Q645.72 288.864 647.0219999999999 287.562Q648.324 286.26 650.246 286.26Q652.106 286.26 653.408 287.562Q654.71 288.864 654.71 290.786Q654.71 292.70799999999997 653.408 294.01Q652.106 295.312 650.246 295.312Q648.324 295.312 647.0219999999999 294.01Q645.72 292.70799999999997 645.72 290.786ZM653.718 299.838V334.0H646.65V299.838ZM719.078 313.85V334.0H712.072V314.904Q712.072 310.316 709.778 307.86699999999996Q707.484 305.418 703.516 305.418Q699.548 305.418 697.223 307.86699999999996Q694.898 310.316 694.898 314.904V334.0H687.892V314.904Q687.892 310.316 685.598 307.86699999999996Q683.304 305.418 679.336 305.418Q675.368 305.418 673.043 307.86699999999996Q670.718 310.316 670.718 314.904V334.0H663.65V299.838H670.718V303.744Q672.454 301.636 675.12 300.45799999999997Q677.7860000000001 299.28 680.824 299.28Q684.916 299.28 688.1400000000001 301.01599999999996Q691.364 302.752 693.1 306.038Q694.65 302.938 697.9359999999999 301.109Q701.222 299.28 705.004 299.28Q709.034 299.28 712.227 300.95399999999995Q715.42 302.628 717.249 305.914Q719.078 309.2 719.078 313.85ZM742.414 299.28Q746.444 299.28 749.451 300.861Q752.458 302.442 754.256 304.798V299.838H761.386V334.0H754.256V328.916Q752.458 331.334 749.358 332.946Q746.258 334.558 742.29 334.558Q737.888 334.558 734.23 332.29499999999996Q730.572 330.032 728.433 325.971Q726.294 321.91 726.294 316.764Q726.294 311.618 728.433 307.65Q730.572 303.682 734.261 301.481Q737.95 299.28 742.414 299.28ZM743.902 305.418Q741.174 305.418 738.818 306.751Q736.462 308.084 735.005 310.65700000000004Q733.548 313.23 733.548 316.764Q733.548 320.298 735.005 322.964Q736.462 325.63 738.8489999999999 327.025Q741.236 328.42 743.902 328.42Q746.63 328.42 748.986 327.05600000000004Q751.342 325.692 752.799 323.057Q754.256 320.422 754.256 316.888Q754.256 313.354 752.799 310.75Q751.342 308.146 748.986 306.78200000000004Q746.63 305.418 743.902 305.418ZM796.256 304.798V299.838H803.386V334.558Q803.386 339.27 801.402 342.959Q799.418 346.648 795.667 348.756Q791.916 350.864 786.708 350.864Q779.764 350.864 775.1759999999999 347.609Q770.588 344.354 769.968 338.774H776.974Q777.78 341.44 780.415 343.08299999999997Q783.05 344.726 786.708 344.726Q790.986 344.726 793.621 342.12199999999996Q796.256 339.518 796.256 334.558V328.854Q794.458 331.272 791.389 332.91499999999996Q788.32 334.558 784.414 334.558Q779.95 334.558 776.261 332.29499999999996Q772.572 330.032 770.433 325.971Q768.294 321.91 768.294 316.764Q768.294 311.618 770.433 307.65Q772.572 303.682 776.261 301.481Q779.95 299.28 784.414 299.28Q788.382 299.28 791.451 300.861Q794.52 302.442 796.256 304.798ZM785.902 305.418Q783.174 305.418 780.818 306.751Q778.462 308.084 777.005 310.65700000000004Q775.548 313.23 775.548 316.764Q775.548 320.298 777.005 322.964Q778.462 325.63 780.8489999999999 327.025Q783.236 328.42 785.902 328.42Q788.63 328.42 790.986 327.05600000000004Q793.342 325.692 794.799 323.057Q796.256 320.422 796.256 316.888Q796.256 313.354 794.799 310.75Q793.342 308.146 790.986 306.78200000000004Q788.63 305.418 785.902 305.418ZM811.72 290.786Q811.72 288.864 813.0219999999999 287.562Q814.324 286.26 816.246 286.26Q818.106 286.26 819.408 287.562Q820.71 288.864 820.71 290.786Q820.71 292.70799999999997 819.408 294.01Q818.106 295.312 816.246 295.312Q814.324 295.312 813.0219999999999 294.01Q811.72 292.70799999999997 811.72 290.786ZM819.718 299.838V334.0H812.65V299.838ZM860.898 313.85V334.0H853.892V314.904Q853.892 310.316 851.598 307.86699999999996Q849.304 305.418 845.336 305.418Q841.368 305.418 839.043 307.86699999999996Q836.718 310.316 836.718 314.904V334.0H829.65V299.838H836.718V303.744Q838.454 301.636 841.151 300.45799999999997Q843.848 299.28 846.886 299.28Q850.916 299.28 854.109 300.95399999999995Q857.302 302.628 859.1 305.914Q860.898 309.2 860.898 313.85ZM901.712 319.554H875.61Q875.92 323.646 878.6479999999999 326.126Q881.376 328.606 885.344 328.606Q891.048 328.606 893.404 323.832H901.03Q899.48 328.544 895.419 331.551Q891.358 334.558 885.344 334.558Q880.446 334.558 876.571 332.35699999999997Q872.696 330.156 870.495 326.15700000000004Q868.294 322.158 868.294 316.888Q868.294 311.618 870.433 307.619Q872.572 303.62 876.447 301.45Q880.322 299.28 885.344 299.28Q890.18 299.28 893.962 301.388Q897.744 303.496 899.8520000000001 307.30899999999997Q901.96 311.122 901.96 316.082Q901.96 318.004 901.712 319.554ZM894.582 313.85Q894.52 309.944 891.7919999999999 307.58799999999997Q889.064 305.23199999999997 885.034 305.23199999999997Q881.376 305.23199999999997 878.7719999999999 307.557Q876.168 309.882 875.672 313.85ZM921.476 299.28Q924.824 299.28 928.079 300.73699999999997Q931.334 302.194 933.256 304.612V288.12H940.386V334.0H933.256V328.854Q931.52 331.334 928.451 332.946Q925.382 334.558 921.414 334.558Q916.95 334.558 913.261 332.29499999999996Q909.572 330.032 907.433 325.971Q905.294 321.91 905.294 316.764Q905.294 311.618 907.433 307.65Q909.572 303.682 913.261 301.481Q916.95 299.28 921.476 299.28ZM922.902 305.418Q920.174 305.418 917.818 306.751Q915.462 308.084 914.005 310.65700000000004Q912.548 313.23 912.548 316.764Q912.548 320.298 914.005 322.964Q915.462 325.63 917.8489999999999 327.025Q920.236 328.42 922.902 328.42Q925.63 328.42 927.986 327.05600000000004Q930.342 325.692 931.799 323.057Q933.256 320.422 933.256 316.888Q933.256 313.354 931.799 310.75Q930.342 308.146 927.986 306.78200000000004Q925.63 305.418 922.902 305.418ZM1011.53 299.838 1000.928 334.0H993.488L986.606 308.766L979.724 334.0H972.284L961.62 299.838H968.812L975.942 327.304L983.196 299.838H990.574L997.518 327.18L1004.586 299.838ZM1015.72 290.786Q1015.72 288.864 1017.0219999999999 287.562Q1018.324 286.26 1020.246 286.26Q1022.106 286.26 1023.408 287.562Q1024.71 288.864 1024.71 290.786Q1024.71 292.70799999999997 1023.408 294.01Q1022.106 295.312 1020.246 295.312Q1018.324 295.312 1017.0219999999999 294.01Q1015.72 292.70799999999997 1015.72 290.786ZM1023.718 299.838V334.0H1016.65V299.838ZM1041.896 305.604V324.514Q1041.896 326.436 1042.795 327.273Q1043.694 328.11 1045.864 328.11H1050.204V334.0H1044.624Q1039.85 334.0 1037.308 331.76800000000003Q1034.766 329.536 1034.766 324.514V305.604H1030.736V299.838H1034.766V291.344H1041.896V299.838H1050.204V305.604ZM1087.898 313.85V334.0H1080.892V314.904Q1080.892 310.316 1078.598 307.86699999999996Q1076.304 305.418 1072.336 305.418Q1068.368 305.418 1066.0430000000001 307.86699999999996Q1063.718 310.316 1063.718 314.904V334.0H1056.65V288.12H1063.718V303.806Q1065.516 301.636 1068.275 300.45799999999997Q1071.034 299.28 1074.32 299.28Q1078.226 299.28 1081.295 300.95399999999995Q1084.364 302.628 1086.1309999999999 305.914Q1087.898 309.2 1087.898 313.85ZM1144.402 299.838 1123.446 350.058H1116.13L1123.074 333.442L1109.62 299.838H1117.494L1127.104 325.878L1137.086 299.838ZM1147.356 316.888Q1147.356 311.68 1149.65 307.65Q1151.944 303.62 1155.912 301.45Q1159.88 299.28 1164.778 299.28Q1169.676 299.28 1173.644 301.45Q1177.612 303.62 1179.906 307.65Q1182.2 311.68 1182.2 316.888Q1182.2 322.096 1179.844 326.126Q1177.488 330.156 1173.4270000000001 332.35699999999997Q1169.366 334.558 1164.468 334.558Q1159.632 334.558 1155.726 332.35699999999997Q1151.82 330.156 1149.588 326.15700000000004Q1147.356 322.158 1147.356 316.888ZM1174.946 316.888Q1174.946 313.168 1173.52 310.595Q1172.094 308.022 1169.738 306.72Q1167.382 305.418 1164.654 305.418Q1161.926 305.418 1159.601 306.72Q1157.276 308.022 1155.912 310.595Q1154.548 313.168 1154.548 316.888Q1154.548 322.406 1157.3690000000001 325.413Q1160.19 328.42 1164.468 328.42Q1167.196 328.42 1169.583 327.118Q1171.97 325.816 1173.458 323.212Q1174.946 320.608 1174.946 316.888ZM1219.588 299.838V334.0H1212.52V329.97Q1210.846 332.078 1208.149 333.287Q1205.452 334.496 1202.414 334.496Q1198.384 334.496 1195.191 332.822Q1191.998 331.148 1190.1689999999999 327.862Q1188.34 324.576 1188.34 319.926V299.838H1195.346V318.872Q1195.346 323.46 1197.6399999999999 325.909Q1199.934 328.358 1203.902 328.358Q1207.87 328.358 1210.195 325.909Q1212.52 323.46 1212.52 318.872V299.838ZM1245.948 299.28V306.596H1244.15Q1239.996 306.596 1237.857 308.704Q1235.718 310.812 1235.718 316.02V334.0H1228.65V299.838H1235.718V304.798Q1237.268 302.194 1239.841 300.73699999999997Q1242.414 299.28 1245.948 299.28ZM1299.898 313.85V334.0H1292.892V314.904Q1292.892 310.316 1290.598 307.86699999999996Q1288.304 305.418 1284.336 305.418Q1280.368 305.418 1278.0430000000001 307.86699999999996Q1275.718 310.316 1275.718 314.904V334.0H1268.65V299.838H1275.718V303.744Q1277.454 301.636 1280.1509999999998 300.45799999999997Q1282.848 299.28 1285.886 299.28Q1289.916 299.28 1293.109 300.95399999999995Q1296.302 302.628 1298.1 305.914Q1299.898 309.2 1299.898 313.85ZM1340.588 299.838V334.0H1333.52V329.97Q1331.846 332.078 1329.149 333.287Q1326.452 334.496 1323.414 334.496Q1319.384 334.496 1316.191 332.822Q1312.998 331.148 1311.1689999999999 327.862Q1309.34 324.576 1309.34 319.926V299.838H1316.346V318.872Q1316.346 323.46 1318.6399999999999 325.909Q1320.934 328.358 1324.902 328.358Q1328.87 328.358 1331.195 325.909Q1333.52 323.46 1333.52 318.872V299.838ZM1405.078 313.85V334.0H1398.0720000000001V314.904Q1398.0720000000001 310.316 1395.778 307.86699999999996Q1393.484 305.418 1389.516 305.418Q1385.548 305.418 1383.223 307.86699999999996Q1380.898 310.316 1380.898 314.904V334.0H1373.892V314.904Q1373.892 310.316 1371.598 307.86699999999996Q1369.304 305.418 1365.336 305.418Q1361.368 305.418 1359.0430000000001 307.86699999999996Q1356.718 310.316 1356.718 314.904V334.0H1349.65V299.838H1356.718V303.744Q1358.454 301.636 1361.12 300.45799999999997Q1363.786 299.28 1366.824 299.28Q1370.916 299.28 1374.1399999999999 301.01599999999996Q1377.364 302.752 1379.1 306.038Q1380.65 302.938 1383.9360000000001 301.109Q1387.222 299.28 1391.004 299.28Q1395.034 299.28 1398.227 300.95399999999995Q1401.42 302.628 1403.249 305.914Q1405.078 309.2 1405.078 313.85ZM1433.622 299.28Q1438.148 299.28 1441.806 301.45Q1445.464 303.62 1447.5720000000001 307.619Q1449.68 311.618 1449.68 316.764Q1449.68 321.91 1447.5720000000001 325.971Q1445.464 330.032 1441.775 332.29499999999996Q1438.086 334.558 1433.622 334.558Q1429.654 334.558 1426.585 333.00800000000004Q1423.516 331.458 1421.718 329.04V334.0H1414.65V288.12H1421.718V304.922Q1423.516 302.442 1426.647 300.861Q1429.778 299.28 1433.622 299.28ZM1432.072 305.418Q1429.406 305.418 1427.019 306.78200000000004Q1424.632 308.146 1423.1750000000002 310.75Q1421.718 313.354 1421.718 316.888Q1421.718 320.422 1423.1750000000002 323.057Q1424.632 325.692 1427.019 327.05600000000004Q1429.406 328.42 1432.072 328.42Q1434.8 328.42 1437.187 327.025Q1439.574 325.63 1441.031 322.964Q1442.488 320.298 1442.488 316.764Q1442.488 313.23 1441.031 310.65700000000004Q1439.574 308.084 1437.187 306.751Q1434.8 305.418 1432.072 305.418ZM1487.712 319.554H1461.61Q1461.92 323.646 1464.6480000000001 326.126Q1467.376 328.606 1471.344 328.606Q1477.048 328.606 1479.404 323.832H1487.03Q1485.48 328.544 1481.4189999999999 331.551Q1477.358 334.558 1471.344 334.558Q1466.446 334.558 1462.571 332.35699999999997Q1458.696 330.156 1456.495 326.15700000000004Q1454.294 322.158 1454.294 316.888Q1454.294 311.618 1456.433 307.619Q1458.572 303.62 1462.447 301.45Q1466.322 299.28 1471.344 299.28Q1476.18 299.28 1479.962 301.388Q1483.744 303.496 1485.8519999999999 307.30899999999997Q1487.96 311.122 1487.96 316.082Q1487.96 318.004 1487.712 319.554ZM1480.582 313.85Q1480.52 309.944 1477.792 307.58799999999997Q1475.064 305.23199999999997 1471.034 305.23199999999997Q1467.376 305.23199999999997 1464.772 307.557Q1462.168 309.882 1461.672 313.85ZM1510.948 299.28V306.596H1509.15Q1504.996 306.596 1502.857 308.704Q1500.718 310.812 1500.718 316.02V334.0H1493.65V299.838H1500.718V304.798Q1502.268 302.194 1504.841 300.73699999999997Q1507.414 299.28 1510.948 299.28ZM1515.976 329.908Q1515.976 327.986 1517.278 326.68399999999997Q1518.58 325.382 1520.502 325.382Q1522.362 325.382 1523.664 326.68399999999997Q1524.966 327.986 1524.966 329.908Q1524.966 331.83 1523.664 333.132Q1522.362 334.434 1520.502 334.434Q1518.58 334.434 1517.278 333.132Q1515.976 331.83 1515.976 329.908Z"/>
  </defs>
  <g transform="translate(24 42) scale(.61)">
    <rect x="70" y="66" width="132" height="380" rx="66" fill="url(#left)"/>
    <rect x="310" y="66" width="132" height="380" rx="66" fill="url(#right)"/>
    <rect x="191" y="15" width="130" height="482" rx="65" transform="rotate(-45 256 256)" fill="url(#diagonal)"/>
    <circle cx="256" cy="256" r="88" fill="url(#diagonal)"/>
    <g data-glyph="at" fill="none" stroke="#FFFFFF" stroke-width="18" stroke-linecap="round" stroke-linejoin="round"><circle cx="256" cy="256" r="29"/><path d="M285 227v36a22 22 0 0 0 43 0v-7a72 72 0 1 0-29 58"/></g>
  </g>
  <use href="#wordmarkNumberOutline" fill="#0F172A"/>
  <use href="#wordmarkInboxOutline" fill="url(#inbox)"/>
  <use href="#wordmarkInboxOutline" fill="url(#inboxDepth)"/>
  <use href="#wordmarkInboxOutline" fill="url(#inboxGlow)"/>
  <use href="#primaryTaglineOutline" fill="#557195"/>
</svg>
